<mxfile host="app.diagrams.net" modified="2023-02-14T02:38:38.007Z" agent="5.0 (Windows NT 10.0; Win64; x64) AppleWebKit/537.36 (KHTML, like Gecko) Chrome/110.0.0.0 Safari/537.36" etag="v6mPrjtzgHM7fr-KoG50" version="20.8.20" type="github">
  <diagram name="Page-1" id="u2mX1ZMJJqiqoen1atFR">
    <mxGraphModel dx="1050" dy="573" grid="1" gridSize="10" guides="1" tooltips="1" connect="1" arrows="1" fold="1" page="1" pageScale="1" pageWidth="850" pageHeight="1100" math="0" shadow="0">
      <root>
        <mxCell id="0" />
        <mxCell id="1" parent="0" />
        <mxCell id="ey4Ps0-o6KJW8vAUeC8F-2" value="AWS Cloud" style="sketch=0;outlineConnect=0;gradientColor=none;html=1;whiteSpace=wrap;fontSize=12;fontStyle=1;shape=mxgraph.aws4.group;grIcon=mxgraph.aws4.group_aws_cloud;strokeColor=#AAB7B8;fillColor=none;verticalAlign=top;align=left;spacingLeft=30;fontColor=#AAB7B8;dashed=0;" vertex="1" parent="1">
          <mxGeometry y="120" width="760" height="720" as="geometry" />
        </mxCell>
        <mxCell id="ey4Ps0-o6KJW8vAUeC8F-3" value="Region" style="points=[[0,0],[0.25,0],[0.5,0],[0.75,0],[1,0],[1,0.25],[1,0.5],[1,0.75],[1,1],[0.75,1],[0.5,1],[0.25,1],[0,1],[0,0.75],[0,0.5],[0,0.25]];outlineConnect=0;gradientColor=none;html=1;whiteSpace=wrap;fontSize=12;fontStyle=0;container=1;pointerEvents=0;collapsible=0;recursiveResize=0;shape=mxgraph.aws4.group;grIcon=mxgraph.aws4.group_region;strokeColor=#147EBA;fillColor=none;verticalAlign=top;align=left;spacingLeft=30;fontColor=#147EBA;dashed=1;" vertex="1" parent="1">
          <mxGeometry x="120" y="150" width="610" height="650" as="geometry" />
        </mxCell>
        <mxCell id="ey4Ps0-o6KJW8vAUeC8F-5" value="Availability Zone" style="fillColor=none;strokeColor=#147EBA;dashed=1;verticalAlign=top;fontStyle=0;fontColor=#147EBA;" vertex="1" parent="ey4Ps0-o6KJW8vAUeC8F-3">
          <mxGeometry x="360" y="40" width="200" height="560" as="geometry" />
        </mxCell>
        <mxCell id="ey4Ps0-o6KJW8vAUeC8F-4" value="dd" style="fillColor=none;strokeColor=#147EBA;dashed=1;verticalAlign=top;fontStyle=0;fontColor=#147EBA;" vertex="1" parent="ey4Ps0-o6KJW8vAUeC8F-3">
          <mxGeometry x="47" y="40" width="186" height="560" as="geometry" />
        </mxCell>
        <mxCell id="ey4Ps0-o6KJW8vAUeC8F-7" value="Public subnet" style="points=[[0,0],[0.25,0],[0.5,0],[0.75,0],[1,0],[1,0.25],[1,0.5],[1,0.75],[1,1],[0.75,1],[0.5,1],[0.25,1],[0,1],[0,0.75],[0,0.5],[0,0.25]];outlineConnect=0;gradientColor=none;html=1;whiteSpace=wrap;fontSize=12;fontStyle=0;container=1;pointerEvents=0;collapsible=0;recursiveResize=0;shape=mxgraph.aws4.group;grIcon=mxgraph.aws4.group_security_group;grStroke=0;strokeColor=#248814;fillColor=#E9F3E6;verticalAlign=top;align=left;spacingLeft=30;fontColor=#248814;dashed=0;" vertex="1" parent="ey4Ps0-o6KJW8vAUeC8F-3">
          <mxGeometry x="80" y="80" width="120" height="160" as="geometry" />
        </mxCell>
        <mxCell id="ey4Ps0-o6KJW8vAUeC8F-27" value="" style="sketch=0;outlineConnect=0;fontColor=#232F3E;gradientColor=none;fillColor=#4D27AA;strokeColor=none;dashed=0;verticalLabelPosition=bottom;verticalAlign=top;align=center;html=1;fontSize=12;fontStyle=0;aspect=fixed;pointerEvents=1;shape=mxgraph.aws4.nat_gateway;" vertex="1" parent="ey4Ps0-o6KJW8vAUeC8F-7">
          <mxGeometry x="42" y="60" width="40" height="40" as="geometry" />
        </mxCell>
        <mxCell id="ey4Ps0-o6KJW8vAUeC8F-36" value="" style="endArrow=classic;startArrow=classic;html=1;rounded=0;" edge="1" parent="ey4Ps0-o6KJW8vAUeC8F-7" target="ey4Ps0-o6KJW8vAUeC8F-18">
          <mxGeometry width="50" height="50" relative="1" as="geometry">
            <mxPoint x="70" y="60" as="sourcePoint" />
            <mxPoint x="120" y="10" as="targetPoint" />
          </mxGeometry>
        </mxCell>
        <mxCell id="ey4Ps0-o6KJW8vAUeC8F-9" value="Public subnet" style="points=[[0,0],[0.25,0],[0.5,0],[0.75,0],[1,0],[1,0.25],[1,0.5],[1,0.75],[1,1],[0.75,1],[0.5,1],[0.25,1],[0,1],[0,0.75],[0,0.5],[0,0.25]];outlineConnect=0;gradientColor=none;html=1;whiteSpace=wrap;fontSize=12;fontStyle=0;container=1;pointerEvents=0;collapsible=0;recursiveResize=0;shape=mxgraph.aws4.group;grIcon=mxgraph.aws4.group_security_group;grStroke=0;strokeColor=#248814;fillColor=#E9F3E6;verticalAlign=top;align=left;spacingLeft=30;fontColor=#248814;dashed=0;" vertex="1" parent="ey4Ps0-o6KJW8vAUeC8F-3">
          <mxGeometry x="395" y="80" width="130" height="160" as="geometry" />
        </mxCell>
        <mxCell id="ey4Ps0-o6KJW8vAUeC8F-10" value="Private subnet" style="points=[[0,0],[0.25,0],[0.5,0],[0.75,0],[1,0],[1,0.25],[1,0.5],[1,0.75],[1,1],[0.75,1],[0.5,1],[0.25,1],[0,1],[0,0.75],[0,0.5],[0,0.25]];outlineConnect=0;gradientColor=none;html=1;whiteSpace=wrap;fontSize=12;fontStyle=0;container=1;pointerEvents=0;collapsible=0;recursiveResize=0;shape=mxgraph.aws4.group;grIcon=mxgraph.aws4.group_security_group;grStroke=0;strokeColor=#147EBA;fillColor=#E6F2F8;verticalAlign=top;align=left;spacingLeft=30;fontColor=#147EBA;dashed=0;" vertex="1" parent="ey4Ps0-o6KJW8vAUeC8F-3">
          <mxGeometry x="75" y="280" width="130" height="160" as="geometry" />
        </mxCell>
        <mxCell id="ey4Ps0-o6KJW8vAUeC8F-11" value="Private subnet" style="points=[[0,0],[0.25,0],[0.5,0],[0.75,0],[1,0],[1,0.25],[1,0.5],[1,0.75],[1,1],[0.75,1],[0.5,1],[0.25,1],[0,1],[0,0.75],[0,0.5],[0,0.25]];outlineConnect=0;gradientColor=none;html=1;whiteSpace=wrap;fontSize=12;fontStyle=0;container=1;pointerEvents=0;collapsible=0;recursiveResize=0;shape=mxgraph.aws4.group;grIcon=mxgraph.aws4.group_security_group;grStroke=0;strokeColor=#147EBA;fillColor=#E6F2F8;verticalAlign=top;align=left;spacingLeft=30;fontColor=#147EBA;dashed=0;" vertex="1" parent="ey4Ps0-o6KJW8vAUeC8F-3">
          <mxGeometry x="400" y="280" width="130" height="160" as="geometry" />
        </mxCell>
        <mxCell id="ey4Ps0-o6KJW8vAUeC8F-12" value="Private subnet" style="points=[[0,0],[0.25,0],[0.5,0],[0.75,0],[1,0],[1,0.25],[1,0.5],[1,0.75],[1,1],[0.75,1],[0.5,1],[0.25,1],[0,1],[0,0.75],[0,0.5],[0,0.25]];outlineConnect=0;gradientColor=none;html=1;whiteSpace=wrap;fontSize=12;fontStyle=0;container=1;pointerEvents=0;collapsible=0;recursiveResize=0;shape=mxgraph.aws4.group;grIcon=mxgraph.aws4.group_security_group;grStroke=0;strokeColor=#147EBA;fillColor=#E6F2F8;verticalAlign=top;align=left;spacingLeft=30;fontColor=#147EBA;dashed=0;" vertex="1" parent="ey4Ps0-o6KJW8vAUeC8F-3">
          <mxGeometry x="75" y="480" width="130" height="98" as="geometry" />
        </mxCell>
        <mxCell id="ey4Ps0-o6KJW8vAUeC8F-13" value="Private subnet" style="points=[[0,0],[0.25,0],[0.5,0],[0.75,0],[1,0],[1,0.25],[1,0.5],[1,0.75],[1,1],[0.75,1],[0.5,1],[0.25,1],[0,1],[0,0.75],[0,0.5],[0,0.25]];outlineConnect=0;gradientColor=none;html=1;whiteSpace=wrap;fontSize=12;fontStyle=0;container=1;pointerEvents=0;collapsible=0;recursiveResize=0;shape=mxgraph.aws4.group;grIcon=mxgraph.aws4.group_security_group;grStroke=0;strokeColor=#147EBA;fillColor=#E6F2F8;verticalAlign=top;align=left;spacingLeft=30;fontColor=#147EBA;dashed=0;" vertex="1" parent="ey4Ps0-o6KJW8vAUeC8F-3">
          <mxGeometry x="400" y="480" width="120" height="80" as="geometry" />
        </mxCell>
        <mxCell id="ey4Ps0-o6KJW8vAUeC8F-25" value="" style="sketch=0;outlineConnect=0;fontColor=#232F3E;gradientColor=none;fillColor=#D45B07;strokeColor=none;dashed=0;verticalLabelPosition=bottom;verticalAlign=top;align=center;html=1;fontSize=12;fontStyle=0;aspect=fixed;pointerEvents=1;shape=mxgraph.aws4.auto_scaling2;" vertex="1" parent="ey4Ps0-o6KJW8vAUeC8F-3">
          <mxGeometry x="275" y="70" width="48" height="48" as="geometry" />
        </mxCell>
        <mxCell id="ey4Ps0-o6KJW8vAUeC8F-26" value="" style="sketch=0;outlineConnect=0;fontColor=#232F3E;gradientColor=none;fillColor=#D45B07;strokeColor=none;dashed=0;verticalLabelPosition=bottom;verticalAlign=top;align=center;html=1;fontSize=12;fontStyle=0;aspect=fixed;pointerEvents=1;shape=mxgraph.aws4.auto_scaling2;" vertex="1" parent="ey4Ps0-o6KJW8vAUeC8F-3">
          <mxGeometry x="277" y="280" width="48" height="48" as="geometry" />
        </mxCell>
        <mxCell id="ey4Ps0-o6KJW8vAUeC8F-28" value="" style="sketch=0;outlineConnect=0;fontColor=#232F3E;gradientColor=none;fillColor=#4D27AA;strokeColor=none;dashed=0;verticalLabelPosition=bottom;verticalAlign=top;align=center;html=1;fontSize=12;fontStyle=0;aspect=fixed;pointerEvents=1;shape=mxgraph.aws4.nat_gateway;" vertex="1" parent="ey4Ps0-o6KJW8vAUeC8F-3">
          <mxGeometry x="435" y="140" width="40" height="40" as="geometry" />
        </mxCell>
        <mxCell id="ey4Ps0-o6KJW8vAUeC8F-29" value="" style="sketch=0;points=[[0,0,0],[0.25,0,0],[0.5,0,0],[0.75,0,0],[1,0,0],[0,1,0],[0.25,1,0],[0.5,1,0],[0.75,1,0],[1,1,0],[0,0.25,0],[0,0.5,0],[0,0.75,0],[1,0.25,0],[1,0.5,0],[1,0.75,0]];outlineConnect=0;fontColor=#232F3E;gradientColor=#F78E04;gradientDirection=north;fillColor=#D05C17;strokeColor=#ffffff;dashed=0;verticalLabelPosition=bottom;verticalAlign=top;align=center;html=1;fontSize=12;fontStyle=0;aspect=fixed;shape=mxgraph.aws4.resourceIcon;resIcon=mxgraph.aws4.ec2;" vertex="1" parent="ey4Ps0-o6KJW8vAUeC8F-3">
          <mxGeometry x="113" y="341" width="49" height="49" as="geometry" />
        </mxCell>
        <mxCell id="ey4Ps0-o6KJW8vAUeC8F-30" value="" style="sketch=0;points=[[0,0,0],[0.25,0,0],[0.5,0,0],[0.75,0,0],[1,0,0],[0,1,0],[0.25,1,0],[0.5,1,0],[0.75,1,0],[1,1,0],[0,0.25,0],[0,0.5,0],[0,0.75,0],[1,0.25,0],[1,0.5,0],[1,0.75,0]];outlineConnect=0;fontColor=#232F3E;gradientColor=#F78E04;gradientDirection=north;fillColor=#D05C17;strokeColor=#ffffff;dashed=0;verticalLabelPosition=bottom;verticalAlign=top;align=center;html=1;fontSize=12;fontStyle=0;aspect=fixed;shape=mxgraph.aws4.resourceIcon;resIcon=mxgraph.aws4.ec2;" vertex="1" parent="ey4Ps0-o6KJW8vAUeC8F-3">
          <mxGeometry x="440.5" y="341" width="49" height="49" as="geometry" />
        </mxCell>
        <mxCell id="ey4Ps0-o6KJW8vAUeC8F-31" value="" style="sketch=0;points=[[0,0,0],[0.25,0,0],[0.5,0,0],[0.75,0,0],[1,0,0],[0,1,0],[0.25,1,0],[0.5,1,0],[0.75,1,0],[1,1,0],[0,0.25,0],[0,0.5,0],[0,0.75,0],[1,0.25,0],[1,0.5,0],[1,0.75,0]];outlineConnect=0;fontColor=#232F3E;gradientColor=#4D72F3;gradientDirection=north;fillColor=#3334B9;strokeColor=#ffffff;dashed=0;verticalLabelPosition=bottom;verticalAlign=top;align=center;html=1;fontSize=12;fontStyle=0;aspect=fixed;shape=mxgraph.aws4.resourceIcon;resIcon=mxgraph.aws4.dynamodb;" vertex="1" parent="ey4Ps0-o6KJW8vAUeC8F-3">
          <mxGeometry x="110" y="508" width="52" height="52" as="geometry" />
        </mxCell>
        <mxCell id="ey4Ps0-o6KJW8vAUeC8F-38" value="" style="endArrow=classic;startArrow=classic;html=1;rounded=0;" edge="1" parent="ey4Ps0-o6KJW8vAUeC8F-3" target="ey4Ps0-o6KJW8vAUeC8F-27">
          <mxGeometry width="50" height="50" relative="1" as="geometry">
            <mxPoint x="142" y="340" as="sourcePoint" />
            <mxPoint x="150" y="210" as="targetPoint" />
          </mxGeometry>
        </mxCell>
        <mxCell id="ey4Ps0-o6KJW8vAUeC8F-39" value="" style="endArrow=classic;startArrow=classic;html=1;rounded=0;" edge="1" parent="ey4Ps0-o6KJW8vAUeC8F-3" target="ey4Ps0-o6KJW8vAUeC8F-28">
          <mxGeometry width="50" height="50" relative="1" as="geometry">
            <mxPoint x="460" y="340" as="sourcePoint" />
            <mxPoint x="330" y="120" as="targetPoint" />
          </mxGeometry>
        </mxCell>
        <mxCell id="ey4Ps0-o6KJW8vAUeC8F-40" value="" style="endArrow=classic;startArrow=classic;html=1;rounded=0;entryX=0.25;entryY=1;entryDx=0;entryDy=0;entryPerimeter=0;" edge="1" parent="ey4Ps0-o6KJW8vAUeC8F-3" source="ey4Ps0-o6KJW8vAUeC8F-31" target="ey4Ps0-o6KJW8vAUeC8F-30">
          <mxGeometry width="50" height="50" relative="1" as="geometry">
            <mxPoint x="280" y="370" as="sourcePoint" />
            <mxPoint x="330" y="320" as="targetPoint" />
          </mxGeometry>
        </mxCell>
        <mxCell id="ey4Ps0-o6KJW8vAUeC8F-43" value="" style="outlineConnect=0;dashed=0;verticalLabelPosition=bottom;verticalAlign=top;align=center;html=1;shape=mxgraph.aws3.application_load_balancer;fillColor=#F58534;gradientColor=none;" vertex="1" parent="ey4Ps0-o6KJW8vAUeC8F-3">
          <mxGeometry x="280" y="360" width="48.5" height="46" as="geometry" />
        </mxCell>
        <mxCell id="ey4Ps0-o6KJW8vAUeC8F-44" value="" style="outlineConnect=0;dashed=0;verticalLabelPosition=bottom;verticalAlign=top;align=center;html=1;shape=mxgraph.aws3.application_load_balancer;fillColor=#F58534;gradientColor=none;" vertex="1" parent="ey4Ps0-o6KJW8vAUeC8F-3">
          <mxGeometry x="280" y="160" width="40" height="40" as="geometry" />
        </mxCell>
        <mxCell id="ey4Ps0-o6KJW8vAUeC8F-46" value="" style="endArrow=classic;startArrow=classic;html=1;rounded=0;entryX=0.5;entryY=1;entryDx=0;entryDy=0;" edge="1" parent="ey4Ps0-o6KJW8vAUeC8F-3" target="ey4Ps0-o6KJW8vAUeC8F-10">
          <mxGeometry width="50" height="50" relative="1" as="geometry">
            <mxPoint x="140" y="490" as="sourcePoint" />
            <mxPoint x="162" y="440" as="targetPoint" />
            <Array as="points" />
          </mxGeometry>
        </mxCell>
        <mxCell id="ey4Ps0-o6KJW8vAUeC8F-48" value="" style="sketch=0;aspect=fixed;html=1;points=[];align=center;image;fontSize=12;image=img/lib/mscae/Network_Security_Groups_Classic.svg;" vertex="1" parent="ey4Ps0-o6KJW8vAUeC8F-3">
          <mxGeometry x="411.32" y="328" width="23.68" height="32" as="geometry" />
        </mxCell>
        <mxCell id="ey4Ps0-o6KJW8vAUeC8F-47" value="" style="sketch=0;aspect=fixed;html=1;points=[];align=center;image;fontSize=12;image=img/lib/mscae/Network_Security_Groups_Classic.svg;" vertex="1" parent="ey4Ps0-o6KJW8vAUeC8F-3">
          <mxGeometry x="80" y="328" width="22.2" height="30" as="geometry" />
        </mxCell>
        <mxCell id="ey4Ps0-o6KJW8vAUeC8F-49" value="" style="sketch=0;aspect=fixed;html=1;points=[];align=center;image;fontSize=12;image=img/lib/mscae/Network_Security_Groups_Classic.svg;" vertex="1" parent="ey4Ps0-o6KJW8vAUeC8F-3">
          <mxGeometry x="80" y="508" width="22.2" height="30" as="geometry" />
        </mxCell>
        <mxCell id="ey4Ps0-o6KJW8vAUeC8F-55" value="" style="sketch=0;outlineConnect=0;fontColor=#232F3E;gradientColor=none;fillColor=#4D27AA;strokeColor=none;dashed=0;verticalLabelPosition=bottom;verticalAlign=top;align=center;html=1;fontSize=12;fontStyle=1;aspect=fixed;pointerEvents=1;shape=mxgraph.aws4.network_access_control_list;" vertex="1" parent="ey4Ps0-o6KJW8vAUeC8F-3">
          <mxGeometry x="40" y="473" width="35" height="35" as="geometry" />
        </mxCell>
        <mxCell id="ey4Ps0-o6KJW8vAUeC8F-56" value="" style="sketch=0;outlineConnect=0;fontColor=#232F3E;gradientColor=none;fillColor=#4D27AA;strokeColor=none;dashed=0;verticalLabelPosition=bottom;verticalAlign=top;align=center;html=1;fontSize=12;fontStyle=0;aspect=fixed;pointerEvents=1;shape=mxgraph.aws4.network_access_control_list;" vertex="1" parent="ey4Ps0-o6KJW8vAUeC8F-3">
          <mxGeometry x="45" y="270" width="30" height="30" as="geometry" />
        </mxCell>
        <mxCell id="ey4Ps0-o6KJW8vAUeC8F-57" value="" style="sketch=0;outlineConnect=0;fontColor=#232F3E;gradientColor=none;fillColor=#4D27AA;strokeColor=none;dashed=0;verticalLabelPosition=bottom;verticalAlign=top;align=center;html=1;fontSize=12;fontStyle=0;aspect=fixed;pointerEvents=1;shape=mxgraph.aws4.network_access_control_list;" vertex="1" parent="ey4Ps0-o6KJW8vAUeC8F-3">
          <mxGeometry x="366" y="266" width="34" height="34" as="geometry" />
        </mxCell>
        <mxCell id="ey4Ps0-o6KJW8vAUeC8F-58" value="av" style="points=[[0,0],[0.25,0],[0.5,0],[0.75,0],[1,0],[1,0.25],[1,0.5],[1,0.75],[1,1],[0.75,1],[0.5,1],[0.25,1],[0,1],[0,0.75],[0,0.5],[0,0.25]];outlineConnect=0;gradientColor=none;html=1;whiteSpace=wrap;fontSize=12;fontStyle=0;container=1;pointerEvents=0;collapsible=0;recursiveResize=0;shape=mxgraph.aws4.group;grIcon=mxgraph.aws4.group_vpc;strokeColor=#248814;fillColor=none;verticalAlign=top;align=left;spacingLeft=30;fontColor=#AAB7B8;dashed=0;" vertex="1" parent="ey4Ps0-o6KJW8vAUeC8F-3">
          <mxGeometry x="24" y="20" width="550" height="600" as="geometry" />
        </mxCell>
        <mxCell id="ey4Ps0-o6KJW8vAUeC8F-18" value="" style="sketch=0;outlineConnect=0;fontColor=#232F3E;gradientColor=none;fillColor=#4D27AA;strokeColor=none;dashed=0;verticalLabelPosition=bottom;verticalAlign=top;align=center;html=1;fontSize=12;fontStyle=0;aspect=fixed;pointerEvents=1;shape=mxgraph.aws4.internet_gateway;" vertex="1" parent="ey4Ps0-o6KJW8vAUeC8F-58">
          <mxGeometry x="246" y="-20" width="50" height="50" as="geometry" />
        </mxCell>
        <mxCell id="ey4Ps0-o6KJW8vAUeC8F-70" value="NAT" style="text;html=1;strokeColor=none;fillColor=none;align=center;verticalAlign=middle;whiteSpace=wrap;rounded=0;" vertex="1" parent="ey4Ps0-o6KJW8vAUeC8F-58">
          <mxGeometry x="83.5" y="98" width="60" height="30" as="geometry" />
        </mxCell>
        <mxCell id="ey4Ps0-o6KJW8vAUeC8F-72" value="EC2" style="text;html=1;strokeColor=none;fillColor=none;align=center;verticalAlign=middle;whiteSpace=wrap;rounded=0;" vertex="1" parent="ey4Ps0-o6KJW8vAUeC8F-58">
          <mxGeometry x="83.5" y="365" width="60" height="30" as="geometry" />
        </mxCell>
        <mxCell id="ey4Ps0-o6KJW8vAUeC8F-74" value="SG" style="text;html=1;strokeColor=none;fillColor=none;align=center;verticalAlign=middle;whiteSpace=wrap;rounded=0;" vertex="1" parent="ey4Ps0-o6KJW8vAUeC8F-58">
          <mxGeometry x="366" y="330" width="60" height="30" as="geometry" />
        </mxCell>
        <mxCell id="ey4Ps0-o6KJW8vAUeC8F-75" value="SG" style="text;html=1;strokeColor=none;fillColor=none;align=center;verticalAlign=middle;whiteSpace=wrap;rounded=0;" vertex="1" parent="ey4Ps0-o6KJW8vAUeC8F-58">
          <mxGeometry x="36" y="330" width="60" height="30" as="geometry" />
        </mxCell>
        <mxCell id="ey4Ps0-o6KJW8vAUeC8F-76" value="SG" style="text;html=1;strokeColor=none;fillColor=none;align=center;verticalAlign=middle;whiteSpace=wrap;rounded=0;" vertex="1" parent="ey4Ps0-o6KJW8vAUeC8F-58">
          <mxGeometry x="16" y="490" width="60" height="30" as="geometry" />
        </mxCell>
        <mxCell id="ey4Ps0-o6KJW8vAUeC8F-77" value="ALB" style="text;html=1;strokeColor=none;fillColor=none;align=center;verticalAlign=middle;whiteSpace=wrap;rounded=0;" vertex="1" parent="ey4Ps0-o6KJW8vAUeC8F-58">
          <mxGeometry x="251" y="380" width="60" height="30" as="geometry" />
        </mxCell>
        <mxCell id="ey4Ps0-o6KJW8vAUeC8F-78" value="ALB" style="text;html=1;strokeColor=none;fillColor=none;align=center;verticalAlign=middle;whiteSpace=wrap;rounded=0;" vertex="1" parent="ey4Ps0-o6KJW8vAUeC8F-58">
          <mxGeometry x="246" y="170" width="60" height="30" as="geometry" />
        </mxCell>
        <mxCell id="ey4Ps0-o6KJW8vAUeC8F-80" value="ASG" style="text;html=1;strokeColor=none;fillColor=none;align=center;verticalAlign=middle;whiteSpace=wrap;rounded=0;" vertex="1" parent="ey4Ps0-o6KJW8vAUeC8F-58">
          <mxGeometry x="245" y="230" width="60" height="30" as="geometry" />
        </mxCell>
        <mxCell id="ey4Ps0-o6KJW8vAUeC8F-81" value="ASG" style="text;html=1;strokeColor=none;fillColor=none;align=center;verticalAlign=middle;whiteSpace=wrap;rounded=0;" vertex="1" parent="ey4Ps0-o6KJW8vAUeC8F-58">
          <mxGeometry x="241" y="90" width="60" height="30" as="geometry" />
        </mxCell>
        <mxCell id="ey4Ps0-o6KJW8vAUeC8F-82" value="" style="sketch=0;outlineConnect=0;fontColor=#232F3E;gradientColor=none;fillColor=#4D27AA;strokeColor=none;dashed=0;verticalLabelPosition=bottom;verticalAlign=top;align=center;html=1;fontSize=12;fontStyle=0;aspect=fixed;pointerEvents=1;shape=mxgraph.aws4.route_table;" vertex="1" parent="ey4Ps0-o6KJW8vAUeC8F-58">
          <mxGeometry x="23" y="36" width="45.16" height="44" as="geometry" />
        </mxCell>
        <mxCell id="ey4Ps0-o6KJW8vAUeC8F-37" value="" style="endArrow=classic;startArrow=classic;html=1;rounded=0;" edge="1" parent="ey4Ps0-o6KJW8vAUeC8F-3" source="ey4Ps0-o6KJW8vAUeC8F-28" target="ey4Ps0-o6KJW8vAUeC8F-18">
          <mxGeometry width="50" height="50" relative="1" as="geometry">
            <mxPoint x="280" y="180" as="sourcePoint" />
            <mxPoint x="330" y="130" as="targetPoint" />
          </mxGeometry>
        </mxCell>
        <mxCell id="ey4Ps0-o6KJW8vAUeC8F-67" value="Availability Zone A" style="text;html=1;strokeColor=none;fillColor=none;align=center;verticalAlign=middle;whiteSpace=wrap;rounded=0;" vertex="1" parent="ey4Ps0-o6KJW8vAUeC8F-3">
          <mxGeometry x="102" y="40" width="60" height="30" as="geometry" />
        </mxCell>
        <mxCell id="ey4Ps0-o6KJW8vAUeC8F-71" value="NAT" style="text;html=1;strokeColor=none;fillColor=none;align=center;verticalAlign=middle;whiteSpace=wrap;rounded=0;" vertex="1" parent="ey4Ps0-o6KJW8vAUeC8F-3">
          <mxGeometry x="429.5" y="118" width="60" height="30" as="geometry" />
        </mxCell>
        <mxCell id="ey4Ps0-o6KJW8vAUeC8F-73" value="EC2" style="text;html=1;strokeColor=none;fillColor=none;align=center;verticalAlign=middle;whiteSpace=wrap;rounded=0;" vertex="1" parent="ey4Ps0-o6KJW8vAUeC8F-3">
          <mxGeometry x="435" y="385" width="60" height="30" as="geometry" />
        </mxCell>
        <mxCell id="ey4Ps0-o6KJW8vAUeC8F-83" value="" style="sketch=0;outlineConnect=0;fontColor=#232F3E;gradientColor=none;fillColor=#4D27AA;strokeColor=none;dashed=0;verticalLabelPosition=bottom;verticalAlign=top;align=center;html=1;fontSize=12;fontStyle=0;aspect=fixed;pointerEvents=1;shape=mxgraph.aws4.route_table;" vertex="1" parent="ey4Ps0-o6KJW8vAUeC8F-3">
          <mxGeometry x="50" y="301.41" width="30" height="29.23" as="geometry" />
        </mxCell>
        <mxCell id="ey4Ps0-o6KJW8vAUeC8F-84" value="" style="sketch=0;outlineConnect=0;fontColor=#232F3E;gradientColor=none;fillColor=#4D27AA;strokeColor=none;dashed=0;verticalLabelPosition=bottom;verticalAlign=top;align=center;html=1;fontSize=12;fontStyle=0;aspect=fixed;pointerEvents=1;shape=mxgraph.aws4.route_table;" vertex="1" parent="ey4Ps0-o6KJW8vAUeC8F-3">
          <mxGeometry x="47" y="538" width="38.16" height="37.18" as="geometry" />
        </mxCell>
        <mxCell id="ey4Ps0-o6KJW8vAUeC8F-85" value="" style="sketch=0;outlineConnect=0;fontColor=#232F3E;gradientColor=none;fillColor=#4D27AA;strokeColor=none;dashed=0;verticalLabelPosition=bottom;verticalAlign=top;align=center;html=1;fontSize=12;fontStyle=0;aspect=fixed;pointerEvents=1;shape=mxgraph.aws4.route_table;" vertex="1" parent="ey4Ps0-o6KJW8vAUeC8F-3">
          <mxGeometry x="520" y="66" width="40" height="38.97" as="geometry" />
        </mxCell>
        <mxCell id="ey4Ps0-o6KJW8vAUeC8F-86" value="" style="sketch=0;outlineConnect=0;fontColor=#232F3E;gradientColor=none;fillColor=#4D27AA;strokeColor=none;dashed=0;verticalLabelPosition=bottom;verticalAlign=top;align=center;html=1;fontSize=12;fontStyle=0;aspect=fixed;pointerEvents=1;shape=mxgraph.aws4.route_table;" vertex="1" parent="ey4Ps0-o6KJW8vAUeC8F-3">
          <mxGeometry x="520" y="280" width="40" height="38.97" as="geometry" />
        </mxCell>
        <mxCell id="ey4Ps0-o6KJW8vAUeC8F-87" value="" style="sketch=0;outlineConnect=0;fontColor=#232F3E;gradientColor=none;fillColor=#4D27AA;strokeColor=none;dashed=0;verticalLabelPosition=bottom;verticalAlign=top;align=center;html=1;fontSize=12;fontStyle=0;aspect=fixed;pointerEvents=1;shape=mxgraph.aws4.route_table;" vertex="1" parent="ey4Ps0-o6KJW8vAUeC8F-3">
          <mxGeometry x="520" y="480" width="40" height="38.97" as="geometry" />
        </mxCell>
        <mxCell id="ey4Ps0-o6KJW8vAUeC8F-88" value="IGW" style="text;html=1;strokeColor=none;fillColor=none;align=center;verticalAlign=middle;whiteSpace=wrap;rounded=0;" vertex="1" parent="ey4Ps0-o6KJW8vAUeC8F-3">
          <mxGeometry x="300" width="60" height="30" as="geometry" />
        </mxCell>
        <mxCell id="ey4Ps0-o6KJW8vAUeC8F-19" value="" style="edgeStyle=orthogonalEdgeStyle;rounded=0;orthogonalLoop=1;jettySize=auto;html=1;" edge="1" parent="1" source="ey4Ps0-o6KJW8vAUeC8F-14" target="ey4Ps0-o6KJW8vAUeC8F-15">
          <mxGeometry relative="1" as="geometry">
            <Array as="points">
              <mxPoint x="740" y="56" />
              <mxPoint x="740" y="56" />
            </Array>
          </mxGeometry>
        </mxCell>
        <mxCell id="ey4Ps0-o6KJW8vAUeC8F-14" value="" style="outlineConnect=0;dashed=0;verticalLabelPosition=bottom;verticalAlign=top;align=center;html=1;shape=mxgraph.aws3.users;fillColor=#D2D3D3;gradientColor=none;" vertex="1" parent="1">
          <mxGeometry x="760" y="20" width="66" height="63" as="geometry" />
        </mxCell>
        <mxCell id="ey4Ps0-o6KJW8vAUeC8F-20" value="" style="edgeStyle=orthogonalEdgeStyle;rounded=0;orthogonalLoop=1;jettySize=auto;html=1;" edge="1" parent="1" source="ey4Ps0-o6KJW8vAUeC8F-15" target="ey4Ps0-o6KJW8vAUeC8F-16">
          <mxGeometry relative="1" as="geometry">
            <Array as="points">
              <mxPoint x="600" y="56" />
              <mxPoint x="600" y="56" />
            </Array>
          </mxGeometry>
        </mxCell>
        <mxCell id="ey4Ps0-o6KJW8vAUeC8F-15" value="" style="aspect=fixed;perimeter=ellipsePerimeter;html=1;align=center;shadow=0;dashed=0;spacingTop=3;image;image=img/lib/active_directory/internet_cloud.svg;" vertex="1" parent="1">
          <mxGeometry x="640" y="40" width="50" height="31.5" as="geometry" />
        </mxCell>
        <mxCell id="ey4Ps0-o6KJW8vAUeC8F-21" value="" style="edgeStyle=orthogonalEdgeStyle;rounded=0;orthogonalLoop=1;jettySize=auto;html=1;" edge="1" parent="1" source="ey4Ps0-o6KJW8vAUeC8F-16" target="ey4Ps0-o6KJW8vAUeC8F-17">
          <mxGeometry relative="1" as="geometry">
            <Array as="points">
              <mxPoint x="510" y="55" />
              <mxPoint x="510" y="55" />
            </Array>
          </mxGeometry>
        </mxCell>
        <mxCell id="ey4Ps0-o6KJW8vAUeC8F-16" value="" style="outlineConnect=0;dashed=0;verticalLabelPosition=bottom;verticalAlign=top;align=center;html=1;shape=mxgraph.aws3.route_53;fillColor=#F58536;gradientColor=none;" vertex="1" parent="1">
          <mxGeometry x="515" y="20" width="70.5" height="60" as="geometry" />
        </mxCell>
        <mxCell id="ey4Ps0-o6KJW8vAUeC8F-23" value="" style="edgeStyle=orthogonalEdgeStyle;rounded=0;orthogonalLoop=1;jettySize=auto;html=1;" edge="1" parent="1" source="ey4Ps0-o6KJW8vAUeC8F-17" target="ey4Ps0-o6KJW8vAUeC8F-18">
          <mxGeometry relative="1" as="geometry">
            <Array as="points">
              <mxPoint x="420" y="90" />
              <mxPoint x="420" y="90" />
            </Array>
          </mxGeometry>
        </mxCell>
        <mxCell id="ey4Ps0-o6KJW8vAUeC8F-17" value="" style="outlineConnect=0;dashed=0;verticalLabelPosition=bottom;verticalAlign=top;align=center;html=1;shape=mxgraph.aws3.cloudfront;fillColor=#F58536;gradientColor=none;" vertex="1" parent="1">
          <mxGeometry x="387" y="30" width="76.5" height="50" as="geometry" />
        </mxCell>
        <mxCell id="ey4Ps0-o6KJW8vAUeC8F-32" value="" style="sketch=0;points=[[0,0,0],[0.25,0,0],[0.5,0,0],[0.75,0,0],[1,0,0],[0,1,0],[0.25,1,0],[0.5,1,0],[0.75,1,0],[1,1,0],[0,0.25,0],[0,0.5,0],[0,0.75,0],[1,0.25,0],[1,0.5,0],[1,0.75,0]];outlineConnect=0;fontColor=#232F3E;gradientColor=#F54749;gradientDirection=north;fillColor=#C7131F;strokeColor=#ffffff;dashed=0;verticalLabelPosition=bottom;verticalAlign=top;align=center;html=1;fontSize=12;fontStyle=0;aspect=fixed;shape=mxgraph.aws4.resourceIcon;resIcon=mxgraph.aws4.macie;" vertex="1" parent="1">
          <mxGeometry x="40" y="30.75" width="60" height="60" as="geometry" />
        </mxCell>
        <mxCell id="ey4Ps0-o6KJW8vAUeC8F-33" value="Amazon S3" style="sketch=0;outlineConnect=0;fontColor=#232F3E;gradientColor=none;strokeColor=#ffffff;fillColor=#232F3E;dashed=0;verticalLabelPosition=middle;verticalAlign=bottom;align=center;html=1;whiteSpace=wrap;fontSize=10;fontStyle=1;spacing=3;shape=mxgraph.aws4.productIcon;prIcon=mxgraph.aws4.s3;" vertex="1" parent="1">
          <mxGeometry x="10" y="320" width="60" height="80" as="geometry" />
        </mxCell>
        <mxCell id="ey4Ps0-o6KJW8vAUeC8F-35" value="" style="endArrow=classic;html=1;rounded=0;exitX=0;exitY=0.615;exitDx=0;exitDy=0;exitPerimeter=0;" edge="1" parent="1" source="ey4Ps0-o6KJW8vAUeC8F-31" target="ey4Ps0-o6KJW8vAUeC8F-33">
          <mxGeometry width="50" height="50" relative="1" as="geometry">
            <mxPoint x="220" y="704" as="sourcePoint" />
            <mxPoint x="50" y="670" as="targetPoint" />
            <Array as="points">
              <mxPoint x="40" y="690" />
            </Array>
          </mxGeometry>
        </mxCell>
        <mxCell id="ey4Ps0-o6KJW8vAUeC8F-60" value="" style="outlineConnect=0;dashed=0;verticalLabelPosition=bottom;verticalAlign=top;align=center;html=1;shape=mxgraph.aws3.route_table;fillColor=#F58536;gradientColor=none;" vertex="1" parent="1">
          <mxGeometry x="690" y="150" width="30" height="30" as="geometry" />
        </mxCell>
        <mxCell id="ey4Ps0-o6KJW8vAUeC8F-62" value="Cloudfront" style="text;html=1;strokeColor=none;fillColor=none;align=center;verticalAlign=middle;whiteSpace=wrap;rounded=0;" vertex="1" parent="1">
          <mxGeometry x="395.25" width="64.75" height="30" as="geometry" />
        </mxCell>
        <mxCell id="ey4Ps0-o6KJW8vAUeC8F-63" value="R53" style="text;html=1;strokeColor=none;fillColor=none;align=center;verticalAlign=middle;whiteSpace=wrap;rounded=0;" vertex="1" parent="1">
          <mxGeometry x="520" width="60" height="30" as="geometry" />
        </mxCell>
        <mxCell id="ey4Ps0-o6KJW8vAUeC8F-64" value="Internet" style="text;html=1;strokeColor=none;fillColor=none;align=center;verticalAlign=middle;whiteSpace=wrap;rounded=0;" vertex="1" parent="1">
          <mxGeometry x="632.5" y="10" width="65" height="30" as="geometry" />
        </mxCell>
        <mxCell id="ey4Ps0-o6KJW8vAUeC8F-65" value="Users" style="text;html=1;strokeColor=none;fillColor=none;align=center;verticalAlign=middle;whiteSpace=wrap;rounded=0;" vertex="1" parent="1">
          <mxGeometry x="766" width="64" height="30" as="geometry" />
        </mxCell>
        <mxCell id="ey4Ps0-o6KJW8vAUeC8F-66" value="Amazon Macie" style="text;html=1;strokeColor=none;fillColor=none;align=center;verticalAlign=middle;whiteSpace=wrap;rounded=0;" vertex="1" parent="1">
          <mxGeometry x="35" y="0.75" width="55" height="30" as="geometry" />
        </mxCell>
      </root>
    </mxGraphModel>
  </diagram>
</mxfile>
